<svg xmlns="http://www.w3.org/2000/svg" xmlns:xlink="http://www.w3.org/1999/xlink" width="500" zoomAndPan="magnify" viewBox="0 0 375 374.999991" height="500" preserveAspectRatio="xMidYMid meet" version="1.0"><defs><g/><clipPath id="56adf7798a"><path d="M 243 181 L 350.976562 181 L 350.976562 226.203125 L 243 226.203125 Z M 243 181 " clip-rule="nonzero"/></clipPath><clipPath id="789193584c"><path d="M 142.867188 242.160156 L 148.117188 242.160156 L 148.117188 247.410156 L 142.867188 247.410156 Z M 142.867188 242.160156 " clip-rule="nonzero"/></clipPath><clipPath id="6b030e754e"><path d="M 208.777344 242.984375 L 214.027344 242.984375 L 214.027344 248.234375 L 208.777344 248.234375 Z M 208.777344 242.984375 " clip-rule="nonzero"/></clipPath><clipPath id="6ed094390c"><path d="M 267.449219 242.160156 L 272.699219 242.160156 L 272.699219 247.410156 L 267.449219 247.410156 Z M 267.449219 242.160156 " clip-rule="nonzero"/></clipPath></defs><rect x="-37.5" width="450" fill="#ffffff" y="-37.499999" height="449.999989" fill-opacity="1"/><rect x="-37.5" width="450" fill="#ffffff" y="-37.499999" height="449.999989" fill-opacity="1"/><rect x="-37.5" width="450" fill="#000000" y="-37.499999" height="449.999989" fill-opacity="1"/><g clip-path="url(#56adf7798a)"><path fill="#ffffff" d="M 335.578125 181.351562 C 327.558594 181.351562 322.53125 186.957031 322.53125 186.957031 C 319.859375 183.460938 316.179688 181.359375 309.949219 181.359375 C 303.367188 181.359375 299.003906 186.957031 299.003906 186.957031 C 296.335938 183.460938 291.507812 181.351562 287.738281 181.351562 C 281.910156 181.351562 277.285156 183.933594 274.457031 190.453125 L 264.996094 211.222656 L 254.296875 184.84375 C 252.945312 181.859375 249.613281 180.507812 246.507812 181.902344 C 243.390625 183.304688 242.246094 186.789062 243.652344 189.777344 L 256.714844 219.351562 C 258.765625 223.847656 260.941406 226.203125 264.996094 226.203125 C 269.34375 226.203125 271.226562 223.636719 273.289062 219.351562 C 273.289062 219.351562 282.179688 199.429688 283.269531 197.046875 C 284.363281 194.664062 286.175781 192.5625 288.855469 192.5625 C 291.925781 192.5625 294.441406 195.085938 294.441406 198.171875 L 294.441406 220.316406 C 294.441406 223.558594 296.867188 226.203125 300.078125 226.203125 C 303.28125 226.203125 305.609375 223.558594 305.609375 220.316406 L 305.609375 198.171875 C 305.609375 195.085938 308.125 192.5625 311.195312 192.5625 C 314.265625 192.5625 316.78125 195.085938 316.78125 198.171875 L 316.78125 220.597656 C 316.78125 223.679688 319.292969 226.203125 322.363281 226.203125 C 325.4375 226.203125 327.949219 223.679688 327.949219 220.597656 L 327.949219 198.171875 C 327.949219 195.085938 330.464844 192.5625 333.535156 192.5625 C 336.605469 192.5625 339.121094 195.085938 339.121094 198.171875 L 339.121094 220.597656 C 339.121094 223.679688 341.632812 226.203125 344.703125 226.203125 C 347.777344 226.203125 350.289062 223.679688 350.289062 220.597656 L 350.289062 195.601562 C 350.289062 187.21875 343.613281 181.351562 335.578125 181.351562 Z M 335.578125 181.351562 " fill-opacity="1" fill-rule="nonzero"/></g><path fill="#ffffff" d="M 206.691406 111.175781 C 206.550781 111.3125 206.394531 111.4375 206.214844 111.539062 C 205.140625 112.148438 203.777344 111.773438 203.167969 110.699219 C 202.179688 108.960938 200.957031 107.355469 199.527344 105.929688 C 198.65625 105.054688 198.65625 103.640625 199.527344 102.769531 C 200.398438 101.898438 201.8125 101.898438 202.6875 102.769531 C 204.398438 104.480469 205.867188 106.40625 207.050781 108.492188 C 207.558594 109.386719 207.382812 110.480469 206.691406 111.175781 " fill-opacity="1" fill-rule="nonzero"/><path fill="#ffffff" d="M 195.523438 100.945312 C 194.882812 101.585938 193.886719 101.796875 193.015625 101.398438 C 187.804688 99.015625 181.710938 98.742188 176.296875 100.644531 C 175.132812 101.050781 173.859375 100.441406 173.449219 99.277344 C 173.039062 98.113281 173.652344 96.839844 174.816406 96.429688 C 181.40625 94.117188 188.527344 94.4375 194.871094 97.335938 C 195.992188 97.847656 196.488281 99.171875 195.976562 100.292969 C 195.863281 100.542969 195.707031 100.761719 195.523438 100.945312 " fill-opacity="1" fill-rule="nonzero"/><path fill="#ffffff" d="M 213.496094 121.734375 C 213.496094 129.6875 210.398438 137.164062 204.773438 142.789062 C 199.152344 148.414062 191.671875 151.511719 183.71875 151.511719 C 175.765625 151.511719 168.289062 148.414062 162.667969 142.789062 C 157.042969 137.164062 153.945312 129.6875 153.945312 121.734375 C 153.945312 113.78125 157.042969 106.304688 162.667969 100.683594 C 168.289062 95.058594 175.765625 91.960938 183.71875 91.960938 C 191.671875 91.960938 199.152344 95.058594 204.773438 100.683594 C 210.398438 106.304688 213.496094 113.78125 213.496094 121.734375 Z M 157.402344 95.417969 C 142.867188 109.953125 142.867188 133.519531 157.402344 148.054688 C 171.347656 161.996094 193.605469 162.5625 208.222656 149.746094 L 209.632812 151.15625 C 209.195312 152.8125 209.617188 154.652344 210.914062 155.949219 L 232.15625 177.191406 C 234.097656 179.128906 237.238281 179.128906 239.175781 177.191406 C 241.113281 175.253906 241.113281 172.109375 239.175781 170.171875 L 217.933594 148.929688 C 216.636719 147.632812 214.796875 147.207031 213.144531 147.648438 L 211.734375 146.238281 C 224.546875 131.621094 223.984375 109.363281 210.039062 95.417969 C 195.503906 80.882812 171.9375 80.882812 157.402344 95.417969 " fill-opacity="1" fill-rule="nonzero"/><g clip-path="url(#789193584c)"><path fill="#737373" d="M 147.683594 243.335938 C 147.367188 242.855469 146.898438 242.488281 146.34375 242.296875 L 146.339844 242.300781 C 146.074219 242.207031 145.789062 242.160156 145.492188 242.160156 C 144.042969 242.160156 142.871094 243.335938 142.871094 244.785156 C 142.871094 244.8125 142.871094 244.84375 142.871094 244.875 C 142.875 245.027344 142.894531 245.175781 142.925781 245.316406 C 143.011719 245.746094 143.207031 246.136719 143.476562 246.460938 C 143.957031 247.039062 144.679688 247.410156 145.492188 247.410156 C 146.941406 247.410156 148.117188 246.234375 148.117188 244.785156 C 148.117188 244.25 147.957031 243.753906 147.683594 243.335938 " fill-opacity="1" fill-rule="nonzero"/></g><g fill="#000000" fill-opacity="1"><g transform="translate(31.209688, 224.259546)"><g><path d="M 3.386719 -47.164062 L 3.386719 0 L 13.183594 0 L 13.183594 -19.832031 L 28.964844 -19.832031 L 28.964844 -28.300781 L 13.183594 -28.300781 L 13.183594 -38.699219 L 31.988281 -38.699219 L 31.988281 -47.164062 Z M 3.386719 -47.164062 "/></g></g></g><g fill="#000000" fill-opacity="1"><g transform="translate(61.800641, 224.259546)"><g><path d="M 16.808594 0.785156 C 27.148438 0.785156 31.804688 -5.683594 31.804688 -14.9375 L 31.804688 -17.113281 C 31.804688 -26.363281 27.148438 -32.835938 16.808594 -32.835938 C 6.53125 -32.835938 1.8125 -26.363281 1.8125 -17.113281 L 1.8125 -14.9375 C 1.8125 -5.683594 6.53125 0.785156 16.808594 0.785156 Z M 16.808594 -7.4375 C 13.0625 -7.4375 11.367188 -10.21875 11.367188 -14.9375 L 11.367188 -17.113281 C 11.367188 -21.828125 13.0625 -24.609375 16.808594 -24.609375 C 20.621094 -24.609375 22.253906 -21.828125 22.253906 -17.113281 L 22.253906 -14.9375 C 22.253906 -10.21875 20.621094 -7.4375 16.808594 -7.4375 Z M 16.808594 -7.4375 "/></g></g></g><g fill="#000000" fill-opacity="1"><g transform="translate(92.8148, 224.259546)"><g><path d="M 20.4375 -32.835938 C 16.6875 -32.835938 13.785156 -30.960938 11.914062 -28.300781 L 11.246094 -32.046875 L 2.722656 -32.046875 L 3.265625 -22.976562 L 3.265625 0 L 12.820312 0 L 12.820312 -20.800781 C 13.664062 -22.011719 15.84375 -23.582031 19.710938 -23.582031 L 21.34375 -23.582031 L 21.34375 -32.773438 C 21.101562 -32.835938 20.742188 -32.835938 20.4375 -32.835938 Z M 20.4375 -32.835938 "/></g></g></g><g fill="#000000" fill-opacity="1"><g transform="translate(113.490716, 224.259546)"><g><path d="M 31.804688 -12.578125 L 31.804688 -16.871094 C 31.804688 -26.121094 27.148438 -32.835938 16.992188 -32.835938 C 6.894531 -32.835938 1.8125 -26.121094 1.8125 -16.871094 L 1.8125 -15.175781 C 1.8125 -5.925781 6.710938 0.785156 17.355469 0.785156 C 26.605469 0.785156 31.804688 -3.929688 31.804688 -10.039062 L 31.804688 -10.28125 L 22.796875 -10.28125 C 22.796875 -8.34375 20.742188 -6.46875 17.414062 -6.46875 C 13.847656 -6.46875 11.730469 -8.101562 11.367188 -12.578125 Z M 16.808594 -25.578125 C 20.195312 -25.578125 21.890625 -23.644531 22.191406 -19.472656 L 11.429688 -19.472656 C 11.730469 -23.644531 13.425781 -25.578125 16.808594 -25.578125 Z M 16.808594 -25.578125 "/></g></g></g><g fill="#000000" fill-opacity="1"><g transform="translate(144.504875, 224.259546)"><g><path d="M 32.167969 0 L 32.167969 -21.707031 C 32.167969 -27.511719 29.507812 -32.835938 22.253906 -32.835938 C 17.292969 -32.835938 13.96875 -30.777344 11.972656 -27.9375 L 11.246094 -32.046875 L 2.722656 -32.046875 L 3.265625 -22.976562 L 3.265625 0 L 12.820312 0 L 12.820312 -21.585938 C 13.546875 -22.734375 15.417969 -24.609375 18.441406 -24.609375 C 21.707031 -24.609375 22.675781 -22.433594 22.675781 -20.136719 L 22.675781 0 Z M 32.167969 0 "/></g></g></g><g fill="#000000" fill-opacity="1"><g transform="translate(176.970015, 224.259546)"><g><path d="M 15.964844 -6.46875 C 12.757812 -6.46875 11.609375 -8.042969 11.609375 -10.160156 L 2.117188 -10.160156 L 2.117188 -9.855469 C 2.117188 -3.628906 6.589844 0.785156 15.964844 0.785156 C 25.214844 0.785156 29.871094 -3.324219 29.871094 -9.976562 L 29.871094 -10.523438 C 29.871094 -17.292969 24.550781 -18.925781 16.507812 -19.589844 C 12.820312 -19.894531 11.914062 -20.742188 11.914062 -22.675781 C 11.914062 -24.429688 13.304688 -25.578125 15.964844 -25.578125 C 18.867188 -25.578125 20.074219 -24.066406 20.074219 -21.527344 L 29.449219 -21.527344 L 29.449219 -21.828125 C 29.449219 -28.722656 25.398438 -32.835938 15.964844 -32.835938 C 8.34375 -32.835938 2.480469 -29.75 2.480469 -22.375 L 2.480469 -21.828125 C 2.480469 -15.78125 6.410156 -13.546875 15.480469 -12.820312 C 19.230469 -12.515625 20.257812 -11.609375 20.257812 -9.613281 C 20.257812 -7.800781 19.046875 -6.46875 15.964844 -6.46875 Z M 15.964844 -6.46875 "/></g></g></g><g fill="#000000" fill-opacity="1"><g transform="translate(206.291358, 224.259546)"><g><path d="M 3.265625 0 L 12.820312 0 L 12.820312 -32.046875 L 3.265625 -32.046875 Z M 13.0625 -46.679688 L 3.023438 -46.679688 L 3.023438 -36.582031 L 13.0625 -36.582031 Z M 13.0625 -46.679688 "/></g></g></g><g fill="#000000" fill-opacity="1"><g transform="translate(219.772838, 224.259546)"><g><path d="M 11.367188 -14.9375 L 11.367188 -17.113281 C 11.367188 -21.828125 12.820312 -24.609375 16.507812 -24.609375 C 19.53125 -24.609375 21.101562 -22.855469 21.101562 -19.589844 L 30.113281 -19.589844 L 30.113281 -20.984375 C 30.113281 -28.058594 25.519531 -32.835938 16.328125 -32.835938 C 6.226562 -32.835938 1.8125 -26.363281 1.8125 -17.113281 L 1.8125 -14.9375 C 1.8125 -5.683594 6.226562 0.785156 16.328125 0.785156 C 25.519531 0.785156 30.113281 -3.929688 30.113281 -10.523438 L 30.113281 -11.851562 L 21.101562 -11.851562 C 21.101562 -9.3125 19.589844 -7.4375 16.507812 -7.4375 C 12.820312 -7.4375 11.367188 -10.21875 11.367188 -14.9375 Z M 11.367188 -14.9375 "/></g></g></g><g fill="#f2d01b" fill-opacity="1"><g transform="translate(25.918541, 224.259546)"><g><path d="M 3.386719 -47.164062 L 3.386719 0 L 13.183594 0 L 13.183594 -19.832031 L 28.964844 -19.832031 L 28.964844 -28.300781 L 13.183594 -28.300781 L 13.183594 -38.699219 L 31.988281 -38.699219 L 31.988281 -47.164062 Z M 3.386719 -47.164062 "/></g></g></g><g fill="#f2d01b" fill-opacity="1"><g transform="translate(56.509494, 224.259546)"><g><path d="M 16.808594 0.785156 C 27.148438 0.785156 31.804688 -5.683594 31.804688 -14.9375 L 31.804688 -17.113281 C 31.804688 -26.363281 27.148438 -32.835938 16.808594 -32.835938 C 6.53125 -32.835938 1.8125 -26.363281 1.8125 -17.113281 L 1.8125 -14.9375 C 1.8125 -5.683594 6.53125 0.785156 16.808594 0.785156 Z M 16.808594 -7.4375 C 13.0625 -7.4375 11.367188 -10.21875 11.367188 -14.9375 L 11.367188 -17.113281 C 11.367188 -21.828125 13.0625 -24.609375 16.808594 -24.609375 C 20.621094 -24.609375 22.253906 -21.828125 22.253906 -17.113281 L 22.253906 -14.9375 C 22.253906 -10.21875 20.621094 -7.4375 16.808594 -7.4375 Z M 16.808594 -7.4375 "/></g></g></g><g fill="#f2d01b" fill-opacity="1"><g transform="translate(87.523653, 224.259546)"><g><path d="M 20.4375 -32.835938 C 16.6875 -32.835938 13.785156 -30.960938 11.914062 -28.300781 L 11.246094 -32.046875 L 2.722656 -32.046875 L 3.265625 -22.976562 L 3.265625 0 L 12.820312 0 L 12.820312 -20.800781 C 13.664062 -22.011719 15.84375 -23.582031 19.710938 -23.582031 L 21.34375 -23.582031 L 21.34375 -32.773438 C 21.101562 -32.835938 20.742188 -32.835938 20.4375 -32.835938 Z M 20.4375 -32.835938 "/></g></g></g><g fill="#f2d01b" fill-opacity="1"><g transform="translate(108.199569, 224.259546)"><g><path d="M 31.804688 -12.578125 L 31.804688 -16.871094 C 31.804688 -26.121094 27.148438 -32.835938 16.992188 -32.835938 C 6.894531 -32.835938 1.8125 -26.121094 1.8125 -16.871094 L 1.8125 -15.175781 C 1.8125 -5.925781 6.710938 0.785156 17.355469 0.785156 C 26.605469 0.785156 31.804688 -3.929688 31.804688 -10.039062 L 31.804688 -10.28125 L 22.796875 -10.28125 C 22.796875 -8.34375 20.742188 -6.46875 17.414062 -6.46875 C 13.847656 -6.46875 11.730469 -8.101562 11.367188 -12.578125 Z M 16.808594 -25.578125 C 20.195312 -25.578125 21.890625 -23.644531 22.191406 -19.472656 L 11.429688 -19.472656 C 11.730469 -23.644531 13.425781 -25.578125 16.808594 -25.578125 Z M 16.808594 -25.578125 "/></g></g></g><g fill="#f2d01b" fill-opacity="1"><g transform="translate(139.213728, 224.259546)"><g><path d="M 32.167969 0 L 32.167969 -21.707031 C 32.167969 -27.511719 29.507812 -32.835938 22.253906 -32.835938 C 17.292969 -32.835938 13.96875 -30.777344 11.972656 -27.9375 L 11.246094 -32.046875 L 2.722656 -32.046875 L 3.265625 -22.976562 L 3.265625 0 L 12.820312 0 L 12.820312 -21.585938 C 13.546875 -22.734375 15.417969 -24.609375 18.441406 -24.609375 C 21.707031 -24.609375 22.675781 -22.433594 22.675781 -20.136719 L 22.675781 0 Z M 32.167969 0 "/></g></g></g><g fill="#f2d01b" fill-opacity="1"><g transform="translate(171.678868, 224.259546)"><g><path d="M 15.964844 -6.46875 C 12.757812 -6.46875 11.609375 -8.042969 11.609375 -10.160156 L 2.117188 -10.160156 L 2.117188 -9.855469 C 2.117188 -3.628906 6.589844 0.785156 15.964844 0.785156 C 25.214844 0.785156 29.871094 -3.324219 29.871094 -9.976562 L 29.871094 -10.523438 C 29.871094 -17.292969 24.550781 -18.925781 16.507812 -19.589844 C 12.820312 -19.894531 11.914062 -20.742188 11.914062 -22.675781 C 11.914062 -24.429688 13.304688 -25.578125 15.964844 -25.578125 C 18.867188 -25.578125 20.074219 -24.066406 20.074219 -21.527344 L 29.449219 -21.527344 L 29.449219 -21.828125 C 29.449219 -28.722656 25.398438 -32.835938 15.964844 -32.835938 C 8.34375 -32.835938 2.480469 -29.75 2.480469 -22.375 L 2.480469 -21.828125 C 2.480469 -15.78125 6.410156 -13.546875 15.480469 -12.820312 C 19.230469 -12.515625 20.257812 -11.609375 20.257812 -9.613281 C 20.257812 -7.800781 19.046875 -6.46875 15.964844 -6.46875 Z M 15.964844 -6.46875 "/></g></g></g><g fill="#f2d01b" fill-opacity="1"><g transform="translate(201.000211, 224.259546)"><g><path d="M 3.265625 0 L 12.820312 0 L 12.820312 -32.046875 L 3.265625 -32.046875 Z M 13.0625 -46.679688 L 3.023438 -46.679688 L 3.023438 -36.582031 L 13.0625 -36.582031 Z M 13.0625 -46.679688 "/></g></g></g><g fill="#f2d01b" fill-opacity="1"><g transform="translate(214.481691, 224.259546)"><g><path d="M 11.367188 -14.9375 L 11.367188 -17.113281 C 11.367188 -21.828125 12.820312 -24.609375 16.507812 -24.609375 C 19.53125 -24.609375 21.101562 -22.855469 21.101562 -19.589844 L 30.113281 -19.589844 L 30.113281 -20.984375 C 30.113281 -28.058594 25.519531 -32.835938 16.328125 -32.835938 C 6.226562 -32.835938 1.8125 -26.363281 1.8125 -17.113281 L 1.8125 -14.9375 C 1.8125 -5.683594 6.226562 0.785156 16.328125 0.785156 C 25.519531 0.785156 30.113281 -3.929688 30.113281 -10.523438 L 30.113281 -11.851562 L 21.101562 -11.851562 C 21.101562 -9.3125 19.589844 -7.4375 16.507812 -7.4375 C 12.820312 -7.4375 11.367188 -10.21875 11.367188 -14.9375 Z M 11.367188 -14.9375 "/></g></g></g><g fill="#a6a6a6" fill-opacity="1"><g transform="translate(94.392817, 251.829651)"><g><path d="M 11.914062 -11.804688 L 11.859375 -8.667969 L 11.859375 0 L 13.15625 0 L 13.15625 -14.058594 L 11.335938 -14.058594 L 7.246094 -2.234375 L 3.152344 -14.058594 L 1.332031 -14.058594 L 1.332031 0 L 2.632812 0 L 2.632812 -8.667969 L 2.558594 -11.804688 L 6.648438 0 L 7.820312 0 Z M 11.914062 -11.804688 "/></g></g></g><g fill="#a6a6a6" fill-opacity="1"><g transform="translate(110.695033, 251.829651)"><g><path d="M 1.332031 -14.058594 L 1.332031 0 L 9.171875 0 L 9.171875 -1.171875 L 2.632812 -1.171875 L 2.632812 -6.597656 L 8.273438 -6.597656 L 8.273438 -7.75 L 2.632812 -7.75 L 2.632812 -12.886719 L 9.171875 -12.886719 L 9.171875 -14.058594 Z M 1.332031 -14.058594 "/></g></g></g><g fill="#a6a6a6" fill-opacity="1"><g transform="translate(122.422268, 251.829651)"><g><path d="M 5.191406 -6.667969 C 7.640625 -6.324219 8.667969 -5.496094 8.667969 -3.839844 L 8.667969 -3.675781 C 8.667969 -1.964844 7.390625 -0.972656 5.480469 -0.972656 L 5.351562 -0.972656 C 3.460938 -0.972656 2.125 -2.109375 2.125 -4.578125 L 0.828125 -4.578125 L 0.828125 -4.398438 C 0.828125 -1.496094 2.433594 0.199219 5.40625 0.199219 C 8.21875 0.199219 10.003906 -1.28125 10.003906 -3.765625 L 10.003906 -3.945312 C 10.003906 -6.109375 8.742188 -7.351562 5.675781 -7.769531 C 3.101562 -8.128906 2.324219 -9.011719 2.324219 -10.507812 L 2.324219 -10.652344 C 2.324219 -12.164062 3.621094 -13.085938 5.335938 -13.085938 L 5.460938 -13.085938 C 7.605469 -13.085938 8.542969 -11.96875 8.542969 -9.300781 L 9.839844 -9.300781 L 9.839844 -9.730469 C 9.839844 -12.632812 8.542969 -14.253906 5.40625 -14.253906 C 2.738281 -14.253906 0.992188 -12.832031 0.992188 -10.488281 L 0.992188 -10.308594 C 0.992188 -8.453125 2.125 -7.082031 5.191406 -6.667969 Z M 5.191406 -6.667969 "/></g></g></g><g fill="#a6a6a6" fill-opacity="1"><g transform="translate(135.08611, 251.829651)"><g><path d="M 2.722656 -14.058594 L 1.421875 -14.058594 L 1.421875 0 L 2.722656 0 Z M 2.722656 -14.058594 "/></g></g></g><g fill="#a6a6a6" fill-opacity="1"><g transform="translate(141.056876, 251.829651)"><g/></g></g><g fill="#a6a6a6" fill-opacity="1"><g transform="translate(146.498009, 251.829651)"><g/></g></g><g fill="#a6a6a6" fill-opacity="1"><g transform="translate(151.931876, 251.829651)"><g><path d="M 1.332031 -14.058594 L 1.332031 0 L 9.171875 0 L 9.171875 -1.171875 L 2.632812 -1.171875 L 2.632812 -6.597656 L 8.273438 -6.597656 L 8.273438 -7.75 L 2.632812 -7.75 L 2.632812 -12.886719 L 9.171875 -12.886719 L 9.171875 -14.058594 Z M 1.332031 -14.058594 "/></g></g></g><g fill="#a6a6a6" fill-opacity="1"><g transform="translate(163.65911, 251.829651)"><g><path d="M 5.191406 -6.667969 C 7.640625 -6.324219 8.667969 -5.496094 8.667969 -3.839844 L 8.667969 -3.675781 C 8.667969 -1.964844 7.390625 -0.972656 5.480469 -0.972656 L 5.351562 -0.972656 C 3.460938 -0.972656 2.125 -2.109375 2.125 -4.578125 L 0.828125 -4.578125 L 0.828125 -4.398438 C 0.828125 -1.496094 2.433594 0.199219 5.40625 0.199219 C 8.21875 0.199219 10.003906 -1.28125 10.003906 -3.765625 L 10.003906 -3.945312 C 10.003906 -6.109375 8.742188 -7.351562 5.675781 -7.769531 C 3.101562 -8.128906 2.324219 -9.011719 2.324219 -10.507812 L 2.324219 -10.652344 C 2.324219 -12.164062 3.621094 -13.085938 5.335938 -13.085938 L 5.460938 -13.085938 C 7.605469 -13.085938 8.542969 -11.96875 8.542969 -9.300781 L 9.839844 -9.300781 L 9.839844 -9.730469 C 9.839844 -12.632812 8.542969 -14.253906 5.40625 -14.253906 C 2.738281 -14.253906 0.992188 -12.832031 0.992188 -10.488281 L 0.992188 -10.308594 C 0.992188 -8.453125 2.125 -7.082031 5.191406 -6.667969 Z M 5.191406 -6.667969 "/></g></g></g><g fill="#a6a6a6" fill-opacity="1"><g transform="translate(176.322952, 251.829651)"><g><path d="M 5.28125 -12.886719 L 8.867188 -12.886719 L 8.867188 -14.058594 L 0.414062 -14.058594 L 0.414062 -12.886719 L 3.984375 -12.886719 L 3.984375 0 L 5.28125 0 Z M 5.28125 -12.886719 "/></g></g></g><g fill="#a6a6a6" fill-opacity="1"><g transform="translate(187.437791, 251.829651)"><g><path d="M 2.722656 -14.058594 L 1.421875 -14.058594 L 1.421875 0 L 2.722656 0 Z M 2.722656 -14.058594 "/></g></g></g><g fill="#a6a6a6" fill-opacity="1"><g transform="translate(193.41928, 251.829651)"><g><path d="M 6.144531 0.199219 C 8.378906 0.199219 9.679688 -0.628906 10.433594 -1.421875 L 10.433594 -6.921875 L 6.722656 -6.921875 L 6.722656 -5.765625 L 9.136719 -5.765625 L 9.136719 -2.054688 C 8.632812 -1.515625 7.660156 -0.972656 6.234375 -0.972656 L 6.109375 -0.972656 C 3.53125 -0.972656 2.378906 -2.667969 2.378906 -6.667969 L 2.378906 -7.390625 C 2.378906 -11.390625 3.585938 -13.085938 5.964844 -13.085938 L 6.074219 -13.085938 C 8.234375 -13.085938 9.121094 -11.839844 9.121094 -8.9375 L 10.433594 -8.9375 L 10.433594 -9.445312 C 10.433594 -12.617188 8.976562 -14.253906 5.964844 -14.253906 C 2.757812 -14.253906 1.027344 -12.253906 1.027344 -7.390625 L 1.027344 -6.667969 C 1.027344 -1.800781 2.757812 0.199219 6.144531 0.199219 Z M 6.144531 0.199219 "/></g></g></g><g fill="#a6a6a6" fill-opacity="1"><g transform="translate(206.927966, 251.829651)"><g/></g></g><g fill="#a6a6a6" fill-opacity="1"><g transform="translate(212.369098, 251.829651)"><g/></g></g><g fill="#a6a6a6" fill-opacity="1"><g transform="translate(217.802965, 251.829651)"><g><path d="M 1.332031 -14.058594 L 1.332031 0 L 5.191406 0 C 7.550781 0 9.535156 -1.046875 9.535156 -3.710938 L 9.535156 -4.074219 C 9.535156 -5.875 8.507812 -6.832031 7.082031 -7.261719 C 8.308594 -7.695312 9.171875 -8.578125 9.171875 -10.164062 L 9.171875 -10.523438 C 9.171875 -13.085938 7.246094 -14.058594 4.902344 -14.058594 Z M 5.28125 -6.632812 C 6.867188 -6.632812 8.199219 -5.875 8.199219 -4.035156 L 8.199219 -3.765625 C 8.199219 -1.929688 6.867188 -1.171875 5.28125 -1.171875 L 2.632812 -1.171875 L 2.632812 -6.632812 Z M 4.957031 -12.886719 C 6.523438 -12.886719 7.839844 -12.238281 7.839844 -10.488281 L 7.839844 -10.199219 C 7.839844 -8.453125 6.523438 -7.804688 4.957031 -7.804688 L 2.632812 -7.804688 L 2.632812 -12.886719 Z M 4.957031 -12.886719 "/></g></g></g><g fill="#a6a6a6" fill-opacity="1"><g transform="translate(230.196635, 251.829651)"><g><path d="M 1.332031 -14.058594 L 1.332031 0 L 9.171875 0 L 9.171875 -1.171875 L 2.632812 -1.171875 L 2.632812 -6.597656 L 8.273438 -6.597656 L 8.273438 -7.75 L 2.632812 -7.75 L 2.632812 -12.886719 L 9.171875 -12.886719 L 9.171875 -14.058594 Z M 1.332031 -14.058594 "/></g></g></g><g fill="#a6a6a6" fill-opacity="1"><g transform="translate(241.92387, 251.829651)"><g><path d="M 6.378906 -14.058594 L 6.378906 -4.542969 C 6.378906 -2.089844 5.730469 -0.972656 4.074219 -0.972656 C 2.398438 -0.972656 1.75 -2.089844 1.75 -4.578125 L 0.523438 -4.578125 L 0.523438 -4.324219 C 0.523438 -1.460938 1.40625 0.199219 4.089844 0.199219 C 6.722656 0.199219 7.675781 -1.515625 7.675781 -4.324219 L 7.675781 -14.058594 Z M 6.378906 -14.058594 "/></g></g></g><g fill="#a6a6a6" fill-opacity="1"><g transform="translate(252.678472, 251.829651)"><g><path d="M 4.578125 -14.203125 L 0.523438 0 L 1.929688 0 L 2.9375 -3.605469 L 8.074219 -3.605469 L 9.082031 0 L 10.488281 0 L 6.433594 -14.203125 Z M 5.496094 -12.777344 L 7.730469 -4.777344 L 3.261719 -4.777344 Z M 5.496094 -12.777344 "/></g></g></g><g fill="#a6a6a6" fill-opacity="1"><g transform="translate(265.521712, 251.829651)"><g/></g></g><g fill="#a6a6a6" fill-opacity="1"><g transform="translate(270.962844, 251.829651)"><g/></g></g><g fill="#a6a6a6" fill-opacity="1"><g transform="translate(276.396711, 251.829651)"><g><path d="M 2.632812 -5.714844 L 5.226562 -5.714844 C 7.226562 -5.714844 9.535156 -6.46875 9.535156 -9.695312 L 9.535156 -10.054688 C 9.535156 -13.300781 7.226562 -14.058594 5.226562 -14.058594 L 1.332031 -14.058594 L 1.332031 0 L 2.632812 0 Z M 2.632812 -6.882812 L 2.632812 -12.886719 L 5.261719 -12.886719 C 6.46875 -12.886719 8.199219 -12.433594 8.199219 -10.019531 L 8.199219 -9.75 C 8.199219 -7.335938 6.46875 -6.882812 5.261719 -6.882812 Z M 2.632812 -6.882812 "/></g></g></g><g fill="#a6a6a6" fill-opacity="1"><g transform="translate(288.556224, 251.829651)"><g><path d="M 5.28125 -12.886719 L 8.867188 -12.886719 L 8.867188 -14.058594 L 0.414062 -14.058594 L 0.414062 -12.886719 L 3.984375 -12.886719 L 3.984375 0 L 5.28125 0 Z M 5.28125 -12.886719 "/></g></g></g><g clip-path="url(#6b030e754e)"><path fill="#737373" d="M 213.59375 244.164062 C 213.59375 244.164062 213.59375 244.160156 213.59375 244.160156 C 213.277344 243.679688 212.804688 243.3125 212.253906 243.121094 L 212.25 243.125 C 211.984375 243.035156 211.699219 242.984375 211.402344 242.984375 C 209.953125 242.984375 208.777344 244.160156 208.777344 245.609375 C 208.777344 245.640625 208.78125 245.671875 208.78125 245.699219 L 208.78125 245.703125 C 208.785156 245.851562 208.804688 246 208.832031 246.144531 C 208.921875 246.570312 209.113281 246.960938 209.386719 247.285156 C 209.867188 247.867188 210.589844 248.234375 211.402344 248.234375 C 212.851562 248.234375 214.027344 247.058594 214.027344 245.609375 C 214.027344 245.074219 213.867188 244.578125 213.59375 244.164062 " fill-opacity="1" fill-rule="nonzero"/></g><g clip-path="url(#6ed094390c)"><path fill="#737373" d="M 272.265625 243.335938 C 272.261719 243.335938 272.261719 243.335938 272.261719 243.335938 C 271.945312 242.855469 271.476562 242.488281 270.921875 242.296875 L 270.921875 242.300781 C 270.65625 242.207031 270.371094 242.160156 270.074219 242.160156 C 268.625 242.160156 267.449219 243.335938 267.449219 244.785156 C 267.449219 244.8125 267.449219 244.84375 267.453125 244.875 L 267.449219 244.875 C 267.457031 245.027344 267.472656 245.175781 267.503906 245.316406 C 267.59375 245.746094 267.785156 246.136719 268.054688 246.460938 C 268.535156 247.039062 269.261719 247.410156 270.074219 247.410156 C 271.523438 247.410156 272.699219 246.234375 272.699219 244.785156 C 272.699219 244.25 272.539062 243.753906 272.265625 243.335938 " fill-opacity="1" fill-rule="nonzero"/></g></svg>