<?xml version="1.0" encoding="UTF-8" standalone="no"?>
<svg
   xmlns:dc="http://purl.org/dc/elements/1.1/"
   xmlns:cc="http://creativecommons.org/ns#"
   xmlns:rdf="http://www.w3.org/1999/02/22-rdf-syntax-ns#"
   xmlns:svg="http://www.w3.org/2000/svg"
   xmlns="http://www.w3.org/2000/svg"
   xmlns:sodipodi="http://sodipodi.sourceforge.net/DTD/sodipodi-0.dtd"
   xmlns:inkscape="http://www.inkscape.org/namespaces/inkscape"
   width="25"
   zoomAndPan="magnify"
   viewBox="0 0 388.75 388.75"
   height="25"
   preserveAspectRatio="xMidYMid meet"
   version="1.0"
   id="svg952"
   sodipodi:docname="configurevm.svg"
   inkscape:version="1.0.2 (e86c870879, 2021-01-15, custom)">
  <metadata
     id="metadata956">
    <rdf:RDF>
      <cc:Work
         rdf:about="">
        <dc:format>image/svg+xml</dc:format>
        <dc:type
           rdf:resource="http://purl.org/dc/dcmitype/StillImage" />
        <dc:title></dc:title>
      </cc:Work>
    </rdf:RDF>
  </metadata>
  <sodipodi:namedview
     pagecolor="#ffffff"
     bordercolor="#666666"
     borderopacity="1"
     objecttolerance="10"
     gridtolerance="10"
     guidetolerance="10"
     inkscape:pageopacity="0"
     inkscape:pageshadow="2"
     inkscape:window-width="1920"
     inkscape:window-height="1001"
     id="namedview954"
     showgrid="false"
     scale-x="15.55"
     inkscape:zoom="1.66"
     inkscape:cx="107.74703"
     inkscape:cy="146.30425"
     inkscape:window-x="-9"
     inkscape:window-y="-9"
     inkscape:window-maximized="1"
     inkscape:current-layer="svg952" />
  <defs
     id="defs946">
    <clipPath
       id="672aaa7d5a">
      <path
         d="M 6.105469,6.105469 H 372 V 372 H 6.105469 Z m 0,0"
         clip-rule="nonzero"
         id="path943" />
    </clipPath>
  </defs>
  <g
     clip-path="url(#672aaa7d5a)"
     id="g950"
     style="fill:#ffffff">
    <path
       fill="#ffffff"
       d="m 307.23047,209.70312 -1.32813,5.66797 c -1.9414,8.61719 -4.85547,17.00391 -8.61328,25.00391 l -27.01562,-27.01172 c 8.25781,-29.05469 0.19531,-60.3125 -21.08594,-81.75781 -15.90625,-16.03125 -37.73828,-24.80859 -60.28125,-24.25781 -7.64453,0.0937 -14.47656,4.75781 -17.35938,11.82031 -2.88281,6.96484 -1.23437,14.99609 4.14454,20.24609 l 23.03125,23.02735 c 10.23437,9.84765 10.91406,26.01171 1.55468,36.69921 -9.71875,10.30079 -25.94531,10.82032 -36.28125,1.13672 -0.1914,-0.19531 -0.35547,-0.35937 -0.54687,-0.55078 l -24.03516,-24.03515 c -5.25,-5.37891 -13.25,-6.9961 -20.21484,-4.14454 -7.09375,2.78516 -11.78906,9.58594 -11.88672,17.19922 -0.58203,25.87891 10.94922,50.52735 31.19531,66.66016 21.11719,16.71484 48.97266,22.25391 74.88672,14.86719 l 26.98047,27.01562 c -7.96875,3.75781 -16.38672,6.67188 -25.00391,8.61328 l -5.66797,1.29688 v 48.75 c -13.50781,1.58594 -27.17578,1.58594 -40.71875,0.0312 v -48.78125 l -5.66796,-1.29688 c -13.44141,-3.01172 -26.26954,-8.32422 -37.92969,-15.70703 l -4.92188,-3.14453 -34.531246,34.49609 C 75.179688,313.16016 65.527344,303.47266 57.140625,292.75391 l 34.496094,-34.53125 -3.140625,-4.92188 C 81.140625,241.64062 75.796875,228.8125 72.753906,215.37109 l -1.265625,-5.66797 h -48.75 c -1.617187,-13.50781 -1.617187,-27.17578 0,-40.71875 h 48.75 l 1.265625,-5.66796 C 75.796875,149.875 81.140625,137.04687 88.496094,125.38672 L 91.636719,120.46484 57.140625,85.933594 C 65.527344,75.179688 75.179688,65.527344 85.933594,57.140625 l 34.531246,34.496094 4.92188,-3.140625 C 137.04687,81.140625 149.875,75.796875 163.31641,72.785156 l 5.66796,-1.328125 v -48.71875 c 13.54297,-1.585937 27.21094,-1.617187 40.71875,0 v 48.71875 l 5.66797,1.328125 c 13.44141,3.011719 26.26953,8.355469 37.92969,15.710938 l 4.92188,3.140625 34.53125,-34.496094 c 10.7539,8.386719 20.40625,18.039063 28.79296,28.792969 l -34.49609,34.531246 3.14453,4.92188 c 7.35156,11.66015 12.69531,24.48828 15.70703,37.92969 l 1.32813,5.66796 h 48.71875 c 1.61719,13.54297 1.61719,27.21094 0,40.71875 z m 42.43359,103.6836 c 9.97656,10.03906 9.94531,26.26953 -0.0976,36.27734 -10.03907,9.94531 -26.23829,9.94531 -36.2461,-0.0664 l -95.97265,-96.00391 -4.3086,1.48828 c -22.2539,7.70703 -46.90234,3.53125 -65.39844,-11.04687 -16.67968,-13.3125 -26.20312,-33.6211 -25.71874,-54.96485 -0.0312,-1.75 1.07031,-3.37109 2.72265,-3.98437 1.51953,-0.67969 3.30078,-0.29297 4.4375,0.9375 l 24.03125,24.0039 c 7.64453,7.77344 18.14063,12.04688 29.05469,11.78907 10.88672,-0.12891 21.28125,-4.73047 28.73047,-12.66407 14.70703,-16.45703 13.89843,-41.55859 -1.84375,-57.00781 l -23.03125,-23.0625 c -1.23047,-1.10156 -1.61719,-2.88281 -0.9375,-4.4375 0.64843,-1.65234 2.26562,-2.7539 4.07812,-2.72265 18.625,-0.48438 36.60547,6.73828 49.69141,20.01953 18.6875,18.52734 25.03515,46.21875 16.22656,71.03125 l -1.48828,4.33984 z m 9.23047,-89.10938 c 5.57422,-0.0312 10.33203,-4.11328 11.14453,-9.65234 2.29688,-16.8125 2.29688,-33.87891 -0.0351,-50.69141 -0.8711,-5.47265 -5.57032,-9.52343 -11.10938,-9.52343 h -40.16406 c -3.01172,-11.10938 -7.44922,-21.80079 -13.1836,-31.8086 l 28.3086,-28.339841 c 4.01953,-3.953125 4.5039,-10.238281 1.16797,-14.738281 -10.23438,-13.605469 -22.31641,-25.6875 -35.92188,-35.890626 -4.46875,-3.304687 -10.65625,-2.816406 -14.57422,1.101563 l -28.4414,28.40625 C 246.10937,67.40625 235.38672,62.96875 224.27734,59.957031 V 19.792969 C 224.24609,14.222656 220.16406,9.460938 214.625,8.648438 197.8125,6.351562 180.74609,6.351562 163.93359,8.683594 c -5.47265,0.839844 -9.52343,5.570312 -9.52343,11.109375 v 40.164062 c -11.14063,3.011719 -21.83204,7.449219 -31.8086,13.183594 L 94.261719,44.832031 C 90.308594,40.816406 84.023438,40.328125 79.523438,43.664062 65.917969,53.902344 53.835938,65.980469 43.632812,79.585938 c -3.304687,4.46875 -2.816406,10.65625 1.101563,14.578124 l 28.40625,28.437498 C 67.40625,132.60937 62.96875,143.30078 59.957031,154.41016 H 19.792969 c -5.605469,0.0312 -10.300781,4.11328 -11.144531,9.65234 -2.296876,16.8125 -2.296876,33.88281 0,50.69141 0.875,5.47656 5.605468,9.52343 11.144531,9.52343 h 40.164062 c 3.011719,11.10938 7.449219,21.83203 13.183594,31.8086 l -28.308594,28.375 c -4.015625,3.91797 -4.503906,10.20312 -1.167969,14.70703 10.238282,13.60156 22.316407,25.65234 35.921876,35.88672 4.472656,3.30468 10.65625,2.82031 14.578124,-1.10157 l 28.437498,-28.40625 c 9.97656,5.73438 20.66797,10.17188 31.8086,13.1836 v 40.16406 c 0.0312,5.60547 4.11328,10.30078 9.65234,11.14453 16.8125,2.29688 33.84766,2.26563 50.69141,-0.0351 5.47656,-0.83985 9.52343,-5.57032 9.52343,-11.10938 v -40.16406 c 9.36328,-2.5586 18.36719,-6.1211 26.98047,-10.59375 l 51.76172,51.79687 c 15.67969,15.74219 41.13672,15.80469 56.91406,0.12891 15.74219,-15.67969 15.80469,-41.17188 0.12891,-56.91406 -0.0352,-0.0312 -0.0664,-0.0625 -0.0977,-0.0937 l -51.82812,-51.82813 c 4.47265,-8.58203 8.03515,-17.58594 10.59375,-26.94922 h 40.16406"
       fill-opacity="1"
       fill-rule="nonzero"
       id="path948"
       style="fill:#ffffff" />
  </g>
</svg>
