<svg xmlns="http://www.w3.org/2000/svg" xmlns:xlink="http://www.w3.org/1999/xlink" width="500" zoomAndPan="magnify" viewBox="0 0 375 374.999991" height="500" preserveAspectRatio="xMidYMid meet" version="1.0"><defs><g/><clipPath id="a8258fad10"><path d="M 239 175 L 359 175 L 359 224.375 L 239 224.375 Z M 239 175 " clip-rule="nonzero"/></clipPath><clipPath id="b343e00241"><path d="M 132 67 L 237.726562 67 L 237.726562 172.796875 L 132 172.796875 Z M 132 67 " clip-rule="nonzero"/></clipPath></defs><g clip-path="url(#a8258fad10)"><path fill="#ffffff" d="M 342.394531 175.113281 C 333.5 175.113281 327.921875 181.269531 327.921875 181.269531 C 324.957031 177.429688 320.871094 175.121094 313.960938 175.121094 C 306.660156 175.121094 301.816406 181.269531 301.816406 181.269531 C 298.855469 177.429688 293.5 175.113281 289.316406 175.113281 C 282.851562 175.113281 277.71875 177.949219 274.582031 185.109375 L 264.085938 207.921875 L 252.214844 178.949219 C 250.714844 175.667969 247.015625 174.1875 243.570312 175.71875 C 240.113281 177.257812 238.84375 181.085938 240.402344 184.367188 L 254.898438 216.851562 C 257.171875 221.789062 259.582031 224.375 264.085938 224.375 C 268.90625 224.375 271 221.558594 273.285156 216.851562 C 273.285156 216.851562 283.152344 194.972656 284.359375 192.355469 C 285.570312 189.738281 287.585938 187.425781 290.558594 187.425781 C 293.964844 187.425781 296.753906 190.199219 296.753906 193.585938 L 296.753906 217.910156 C 296.753906 221.46875 299.445312 224.375 303.007812 224.375 C 306.5625 224.375 309.148438 221.46875 309.148438 217.910156 L 309.148438 193.585938 C 309.148438 190.199219 311.9375 187.425781 315.34375 187.425781 C 318.753906 187.425781 321.539062 190.199219 321.539062 193.585938 L 321.539062 218.21875 C 321.539062 221.605469 324.328125 224.375 327.738281 224.375 C 331.144531 224.375 333.933594 221.605469 333.933594 218.21875 L 333.933594 193.585938 C 333.933594 190.199219 336.722656 187.425781 340.128906 187.425781 C 343.539062 187.425781 346.328125 190.199219 346.328125 193.585938 L 346.328125 218.21875 C 346.328125 221.605469 349.117188 224.375 352.523438 224.375 C 355.933594 224.375 358.71875 221.605469 358.71875 218.21875 L 358.71875 190.765625 C 358.71875 181.558594 351.3125 175.113281 342.394531 175.113281 Z M 342.394531 175.113281 " fill-opacity="1" fill-rule="nonzero"/></g><path fill="#ffffff" d="M 199.359375 97.058594 C 199.203125 97.214844 199.027344 97.347656 198.828125 97.460938 C 197.632812 98.140625 196.113281 97.722656 195.433594 96.527344 C 194.332031 94.589844 192.96875 92.800781 191.375 91.210938 C 190.402344 90.238281 190.402344 88.664062 191.375 87.691406 C 192.347656 86.71875 193.921875 86.71875 194.894531 87.691406 C 196.800781 89.597656 198.4375 91.742188 199.761719 94.070312 C 200.328125 95.066406 200.132812 96.285156 199.359375 97.058594 " fill-opacity="1" fill-rule="nonzero"/><path fill="#ffffff" d="M 186.914062 85.65625 C 186.199219 86.371094 185.089844 86.605469 184.117188 86.160156 C 178.3125 83.507812 171.519531 83.203125 165.484375 85.320312 C 164.1875 85.777344 162.765625 85.09375 162.3125 83.796875 C 161.855469 82.5 162.539062 81.078125 163.835938 80.625 C 171.179688 78.046875 179.117188 78.402344 186.1875 81.632812 C 187.4375 82.203125 187.988281 83.679688 187.417969 84.933594 C 187.289062 85.210938 187.117188 85.453125 186.914062 85.65625 " fill-opacity="1" fill-rule="nonzero"/><g clip-path="url(#b343e00241)"><path fill="#ffffff" d="M 206.941406 108.828125 C 206.941406 117.691406 203.492188 126.023438 197.222656 132.292969 C 190.953125 138.558594 182.621094 142.011719 173.757812 142.011719 C 164.894531 142.011719 156.5625 138.558594 150.292969 132.292969 C 144.027344 126.023438 140.574219 117.691406 140.574219 108.828125 C 140.574219 99.964844 144.027344 91.632812 150.292969 85.363281 C 156.5625 79.09375 164.894531 75.644531 173.757812 75.644531 C 182.621094 75.644531 190.953125 79.09375 197.222656 85.363281 C 203.492188 91.632812 206.941406 99.964844 206.941406 108.828125 Z M 144.425781 79.496094 C 128.226562 95.695312 128.226562 121.960938 144.425781 138.160156 C 159.96875 153.699219 184.773438 154.328125 201.066406 140.046875 L 202.640625 141.617188 C 202.148438 143.464844 202.621094 145.511719 204.066406 146.957031 L 227.742188 170.632812 C 229.902344 172.792969 233.402344 172.792969 235.5625 170.632812 C 237.722656 168.472656 237.722656 164.972656 235.5625 162.8125 L 211.886719 139.136719 C 210.441406 137.691406 208.394531 137.21875 206.550781 137.707031 L 204.976562 136.136719 C 219.257812 119.84375 218.632812 95.039062 203.089844 79.496094 C 186.890625 63.296875 160.625 63.296875 144.425781 79.496094 " fill-opacity="1" fill-rule="nonzero"/></g><g fill="#000000" fill-opacity="1"><g transform="translate(23.151213, 219.985972)"><g><path d="M 10.5 -35.003906 L 30.996094 -35.003906 L 30.996094 -38.957031 L 5.644531 -38.957031 L 5.644531 0 L 10.5 0 L 10.5 -17.503906 L 28.738281 -17.503906 L 28.738281 -21.453125 L 10.5 -21.453125 Z M 10.5 -35.003906 "/></g></g></g><g fill="#000000" fill-opacity="1"><g transform="translate(55.153272, 219.985972)"><g><path d="M 16.542969 -30.714844 C 6.378906 -30.714844 1.695312 -23.429688 1.695312 -14.960938 C 1.695312 -6.550781 6.378906 0.789062 16.542969 0.789062 C 26.707031 0.789062 31.390625 -6.550781 31.390625 -14.960938 C 31.390625 -23.429688 26.707031 -30.714844 16.542969 -30.714844 Z M 16.542969 -2.9375 C 10.5 -2.9375 7 -7.960938 7 -14.960938 C 7 -22.019531 10.5 -26.988281 16.542969 -26.988281 C 22.585938 -26.988281 26.085938 -22.019531 26.085938 -14.960938 C 26.085938 -7.960938 22.585938 -2.9375 16.542969 -2.9375 Z M 16.542969 -2.9375 "/></g></g></g><g fill="#000000" fill-opacity="1"><g transform="translate(88.227718, 219.985972)"><g><path d="M 15.921875 -30.601562 C 14.511719 -30.601562 12.984375 -30.09375 11.742188 -29.246094 L 9.035156 -25.238281 L 9.035156 -29.925781 L 4.179688 -29.925781 L 4.179688 0 L 9.035156 0 L 9.035156 -17.050781 C 9.035156 -23.882812 12.871094 -26.875 17.953125 -26.535156 L 17.953125 -30.207031 C 17.390625 -30.488281 16.710938 -30.601562 15.921875 -30.601562 Z M 15.921875 -30.601562 "/></g></g></g><g fill="#000000" fill-opacity="1"><g transform="translate(106.85326, 219.985972)"><g><path d="M 28.738281 -15.808594 C 28.738281 -24.558594 24.164062 -30.714844 15.921875 -30.714844 C 7.734375 -30.714844 1.695312 -24.558594 1.695312 -14.847656 C 1.695312 -4.289062 7.507812 0.789062 15.300781 0.789062 C 21.453125 0.789062 27.15625 -2.429688 28.34375 -9.65625 L 23.261719 -9.65625 C 22.585938 -5.363281 19.421875 -2.9375 15.527344 -2.9375 C 11.121094 -2.9375 7.394531 -5.589844 6.945312 -13.492188 L 28.625 -13.492188 C 28.738281 -14.566406 28.738281 -15.355469 28.738281 -15.808594 Z M 15.808594 -26.988281 C 20.722656 -26.988281 23.375 -23.429688 23.828125 -17.21875 L 7 -17.21875 C 7.566406 -23.601562 11.066406 -26.988281 15.808594 -26.988281 Z M 15.808594 -26.988281 "/></g></g></g><g fill="#000000" fill-opacity="1"><g transform="translate(137.839387, 219.985972)"><g><path d="M 29.359375 -21.964844 C 28.90625 -27.214844 25.238281 -30.714844 18.6875 -30.714844 C 15.640625 -30.714844 13.4375 -30.207031 10.898438 -28.230469 L 9.035156 -24.785156 L 9.035156 -29.925781 L 4.179688 -29.925781 L 4.179688 0 L 9.035156 0 L 9.035156 -13.15625 C 9.035156 -23.375 12.984375 -26.875 17.671875 -26.875 C 22.300781 -26.875 24.222656 -24.277344 24.503906 -20.777344 C 24.617188 -19.253906 24.617188 -18.011719 24.617188 -16.488281 L 24.617188 0 L 29.472656 0 L 29.472656 -16.824219 C 29.472656 -19.253906 29.472656 -20.4375 29.359375 -21.964844 Z M 29.359375 -21.964844 "/></g></g></g><g fill="#000000" fill-opacity="1"><g transform="translate(171.308918, 219.985972)"><g><path d="M 12.871094 -30.714844 C 6.71875 -30.714844 2.539062 -27.441406 2.539062 -21.964844 C 2.539062 -16.710938 6.832031 -14.511719 12.195312 -13.042969 C 17.21875 -11.6875 19.253906 -10.164062 19.253906 -7.285156 C 19.253906 -4.402344 16.65625 -2.9375 13.4375 -2.9375 C 9.992188 -2.9375 7.226562 -4.460938 6.4375 -8.808594 L 1.355469 -8.808594 C 2.257812 -2.03125 6.945312 0.789062 13.097656 0.789062 C 19.421875 0.789062 24.222656 -2.03125 24.222656 -7.679688 C 24.222656 -12.761719 20.945312 -15.46875 14.058594 -17.277344 C 9.992188 -18.347656 7.507812 -19.535156 7.507812 -22.527344 C 7.507812 -25.125 9.089844 -26.988281 12.476562 -26.988281 C 15.976562 -26.988281 18.125 -24.898438 18.800781 -21.398438 L 23.882812 -21.398438 C 23.261719 -26.875 19.589844 -30.714844 12.871094 -30.714844 Z M 12.871094 -30.714844 "/></g></g></g><g fill="#000000" fill-opacity="1"><g transform="translate(197.215347, 219.985972)"><g><path d="M 6.605469 -39.746094 C 4.855469 -39.746094 3.5 -38.394531 3.5 -36.644531 C 3.5 -34.890625 4.855469 -33.539062 6.605469 -33.539062 C 8.355469 -33.539062 9.710938 -34.890625 9.710938 -36.644531 C 9.710938 -38.394531 8.355469 -39.746094 6.605469 -39.746094 Z M 9.035156 0 L 9.035156 -29.925781 L 4.179688 -29.925781 L 4.179688 0 Z M 9.035156 0 "/></g></g></g><g fill="#000000" fill-opacity="1"><g transform="translate(210.64832, 219.985972)"><g><path d="M 15.753906 -30.714844 C 8.242188 -30.714844 1.695312 -25.011719 1.695312 -14.90625 C 1.695312 -3.953125 7.453125 0.789062 15.019531 0.789062 C 21.679688 0.789062 26.648438 -2.597656 28.117188 -9.542969 L 23.035156 -9.542969 C 22.019531 -5.195312 19.253906 -2.9375 15.300781 -2.9375 C 10.839844 -2.9375 7 -6.550781 7 -15.246094 C 7 -23.316406 10.953125 -26.988281 15.640625 -26.988281 C 19.648438 -26.988281 22.246094 -24.671875 23.316406 -19.875 L 28.398438 -19.875 C 27.496094 -26.421875 22.921875 -30.714844 15.753906 -30.714844 Z M 15.753906 -30.714844 "/></g></g></g><g fill="#f2d01b" fill-opacity="1"><g transform="translate(18.210252, 219.985972)"><g><path d="M 10.5 -35.003906 L 30.996094 -35.003906 L 30.996094 -38.957031 L 5.644531 -38.957031 L 5.644531 0 L 10.5 0 L 10.5 -17.503906 L 28.738281 -17.503906 L 28.738281 -21.453125 L 10.5 -21.453125 Z M 10.5 -35.003906 "/></g></g></g><g fill="#f2d01b" fill-opacity="1"><g transform="translate(50.212311, 219.985972)"><g><path d="M 16.542969 -30.714844 C 6.378906 -30.714844 1.695312 -23.429688 1.695312 -14.960938 C 1.695312 -6.550781 6.378906 0.789062 16.542969 0.789062 C 26.707031 0.789062 31.390625 -6.550781 31.390625 -14.960938 C 31.390625 -23.429688 26.707031 -30.714844 16.542969 -30.714844 Z M 16.542969 -2.9375 C 10.5 -2.9375 7 -7.960938 7 -14.960938 C 7 -22.019531 10.5 -26.988281 16.542969 -26.988281 C 22.585938 -26.988281 26.085938 -22.019531 26.085938 -14.960938 C 26.085938 -7.960938 22.585938 -2.9375 16.542969 -2.9375 Z M 16.542969 -2.9375 "/></g></g></g><g fill="#f2d01b" fill-opacity="1"><g transform="translate(83.286757, 219.985972)"><g><path d="M 15.921875 -30.601562 C 14.511719 -30.601562 12.984375 -30.09375 11.742188 -29.246094 L 9.035156 -25.238281 L 9.035156 -29.925781 L 4.179688 -29.925781 L 4.179688 0 L 9.035156 0 L 9.035156 -17.050781 C 9.035156 -23.882812 12.871094 -26.875 17.953125 -26.535156 L 17.953125 -30.207031 C 17.390625 -30.488281 16.710938 -30.601562 15.921875 -30.601562 Z M 15.921875 -30.601562 "/></g></g></g><g fill="#f2d01b" fill-opacity="1"><g transform="translate(101.912298, 219.985972)"><g><path d="M 28.738281 -15.808594 C 28.738281 -24.558594 24.164062 -30.714844 15.921875 -30.714844 C 7.734375 -30.714844 1.695312 -24.558594 1.695312 -14.847656 C 1.695312 -4.289062 7.507812 0.789062 15.300781 0.789062 C 21.453125 0.789062 27.15625 -2.429688 28.34375 -9.65625 L 23.261719 -9.65625 C 22.585938 -5.363281 19.421875 -2.9375 15.527344 -2.9375 C 11.121094 -2.9375 7.394531 -5.589844 6.945312 -13.492188 L 28.625 -13.492188 C 28.738281 -14.566406 28.738281 -15.355469 28.738281 -15.808594 Z M 15.808594 -26.988281 C 20.722656 -26.988281 23.375 -23.429688 23.828125 -17.21875 L 7 -17.21875 C 7.566406 -23.601562 11.066406 -26.988281 15.808594 -26.988281 Z M 15.808594 -26.988281 "/></g></g></g><g fill="#f2d01b" fill-opacity="1"><g transform="translate(132.898426, 219.985972)"><g><path d="M 29.359375 -21.964844 C 28.90625 -27.214844 25.238281 -30.714844 18.6875 -30.714844 C 15.640625 -30.714844 13.4375 -30.207031 10.898438 -28.230469 L 9.035156 -24.785156 L 9.035156 -29.925781 L 4.179688 -29.925781 L 4.179688 0 L 9.035156 0 L 9.035156 -13.15625 C 9.035156 -23.375 12.984375 -26.875 17.671875 -26.875 C 22.300781 -26.875 24.222656 -24.277344 24.503906 -20.777344 C 24.617188 -19.253906 24.617188 -18.011719 24.617188 -16.488281 L 24.617188 0 L 29.472656 0 L 29.472656 -16.824219 C 29.472656 -19.253906 29.472656 -20.4375 29.359375 -21.964844 Z M 29.359375 -21.964844 "/></g></g></g><g fill="#f2d01b" fill-opacity="1"><g transform="translate(166.367957, 219.985972)"><g><path d="M 12.871094 -30.714844 C 6.71875 -30.714844 2.539062 -27.441406 2.539062 -21.964844 C 2.539062 -16.710938 6.832031 -14.511719 12.195312 -13.042969 C 17.21875 -11.6875 19.253906 -10.164062 19.253906 -7.285156 C 19.253906 -4.402344 16.65625 -2.9375 13.4375 -2.9375 C 9.992188 -2.9375 7.226562 -4.460938 6.4375 -8.808594 L 1.355469 -8.808594 C 2.257812 -2.03125 6.945312 0.789062 13.097656 0.789062 C 19.421875 0.789062 24.222656 -2.03125 24.222656 -7.679688 C 24.222656 -12.761719 20.945312 -15.46875 14.058594 -17.277344 C 9.992188 -18.347656 7.507812 -19.535156 7.507812 -22.527344 C 7.507812 -25.125 9.089844 -26.988281 12.476562 -26.988281 C 15.976562 -26.988281 18.125 -24.898438 18.800781 -21.398438 L 23.882812 -21.398438 C 23.261719 -26.875 19.589844 -30.714844 12.871094 -30.714844 Z M 12.871094 -30.714844 "/></g></g></g><g fill="#f2d01b" fill-opacity="1"><g transform="translate(192.274386, 219.985972)"><g><path d="M 6.605469 -39.746094 C 4.855469 -39.746094 3.5 -38.394531 3.5 -36.644531 C 3.5 -34.890625 4.855469 -33.539062 6.605469 -33.539062 C 8.355469 -33.539062 9.710938 -34.890625 9.710938 -36.644531 C 9.710938 -38.394531 8.355469 -39.746094 6.605469 -39.746094 Z M 9.035156 0 L 9.035156 -29.925781 L 4.179688 -29.925781 L 4.179688 0 Z M 9.035156 0 "/></g></g></g><g fill="#f2d01b" fill-opacity="1"><g transform="translate(205.707359, 219.985972)"><g><path d="M 15.753906 -30.714844 C 8.242188 -30.714844 1.695312 -25.011719 1.695312 -14.90625 C 1.695312 -3.953125 7.453125 0.789062 15.019531 0.789062 C 21.679688 0.789062 26.648438 -2.597656 28.117188 -9.542969 L 23.035156 -9.542969 C 22.019531 -5.195312 19.253906 -2.9375 15.300781 -2.9375 C 10.839844 -2.9375 7 -6.550781 7 -15.246094 C 7 -23.316406 10.953125 -26.988281 15.640625 -26.988281 C 19.648438 -26.988281 22.246094 -24.671875 23.316406 -19.875 L 28.398438 -19.875 C 27.496094 -26.421875 22.921875 -30.714844 15.753906 -30.714844 Z M 15.753906 -30.714844 "/></g></g></g><g fill="#737373" fill-opacity="1"><g transform="translate(47.65148, 254.45171)"><g><path d="M 14.40625 0 L 16.46875 -10.609375 C 16.738281 -12.015625 16.988281 -13.15625 17.21875 -14.03125 C 16.519531 -12.59375 15.960938 -11.523438 15.546875 -10.828125 L 9.296875 0 L 7.875 0 L 5.765625 -10.828125 C 5.710938 -11.054688 5.554688 -12.125 5.296875 -14.03125 C 5.222656 -13.570312 5.101562 -12.859375 4.9375 -11.890625 C 4.78125 -10.921875 4.019531 -6.957031 2.65625 0 L 0.71875 0 L 3.84375 -16.109375 L 6.53125 -16.109375 L 8.703125 -4.9375 C 8.753906 -4.632812 8.875 -3.851562 9.0625 -2.59375 L 10.25 -5.03125 L 16.578125 -16.109375 L 19.5 -16.109375 L 16.375 0 Z M 14.40625 0 "/></g></g></g><g fill="#737373" fill-opacity="1"><g transform="translate(69.522909, 254.45171)"><g><path d="M 0.71875 0 L 3.84375 -16.109375 L 15.828125 -16.109375 L 15.484375 -14.328125 L 5.6875 -14.328125 L 4.671875 -9.15625 L 13.796875 -9.15625 L 13.453125 -7.390625 L 4.328125 -7.390625 L 3.25 -1.78125 L 13.515625 -1.78125 L 13.171875 0 Z M 0.71875 0 "/></g></g></g><g fill="#737373" fill-opacity="1"><g transform="translate(87.511214, 254.45171)"><g><path d="M 7.046875 0.234375 C 5.140625 0.234375 3.660156 -0.101562 2.609375 -0.78125 C 1.566406 -1.457031 0.914062 -2.484375 0.65625 -3.859375 L 2.6875 -4.28125 C 2.894531 -3.300781 3.351562 -2.585938 4.0625 -2.140625 C 4.769531 -1.703125 5.816406 -1.484375 7.203125 -1.484375 C 8.867188 -1.484375 10.085938 -1.734375 10.859375 -2.234375 C 11.628906 -2.734375 12.015625 -3.5 12.015625 -4.53125 C 12.015625 -5.039062 11.898438 -5.445312 11.671875 -5.75 C 11.453125 -6.0625 11.078125 -6.335938 10.546875 -6.578125 C 10.015625 -6.828125 9.097656 -7.140625 7.796875 -7.515625 C 6.492188 -7.867188 5.519531 -8.234375 4.875 -8.609375 C 4.226562 -8.984375 3.738281 -9.4375 3.40625 -9.96875 C 3.082031 -10.507812 2.921875 -11.148438 2.921875 -11.890625 C 2.921875 -13.285156 3.503906 -14.375 4.671875 -15.15625 C 5.835938 -15.945312 7.421875 -16.34375 9.421875 -16.34375 C 11.097656 -16.34375 12.441406 -16.050781 13.453125 -15.46875 C 14.460938 -14.894531 15.097656 -14.050781 15.359375 -12.9375 L 13.390625 -12.359375 C 13.128906 -13.148438 12.671875 -13.738281 12.015625 -14.125 C 11.367188 -14.507812 10.5 -14.703125 9.40625 -14.703125 C 6.539062 -14.703125 5.109375 -13.800781 5.109375 -12 C 5.109375 -11.539062 5.203125 -11.164062 5.390625 -10.875 C 5.585938 -10.59375 5.910156 -10.34375 6.359375 -10.125 C 6.804688 -9.90625 7.691406 -9.613281 9.015625 -9.25 C 10.503906 -8.84375 11.570312 -8.445312 12.21875 -8.0625 C 12.875 -7.6875 13.375 -7.222656 13.71875 -6.671875 C 14.0625 -6.128906 14.234375 -5.457031 14.234375 -4.65625 C 14.234375 -3.09375 13.644531 -1.882812 12.46875 -1.03125 C 11.289062 -0.1875 9.484375 0.234375 7.046875 0.234375 Z M 7.046875 0.234375 "/></g></g></g><g fill="#737373" fill-opacity="1"><g transform="translate(105.499519, 254.45171)"><g><path d="M 0.921875 0 L 4.0625 -16.109375 L 6.234375 -16.109375 L 3.109375 0 Z M 0.921875 0 "/></g></g></g><g fill="#737373" fill-opacity="1"><g transform="translate(114.385323, 254.45171)"><g><path d="M 1.203125 -5.296875 L 1.546875 -7.125 L 7.265625 -7.125 L 6.921875 -5.296875 Z M 1.203125 -5.296875 "/></g></g></g><g fill="#737373" fill-opacity="1"><g transform="translate(124.561699, 254.45171)"><g><path d="M 0.71875 0 L 3.84375 -16.109375 L 15.828125 -16.109375 L 15.484375 -14.328125 L 5.6875 -14.328125 L 4.671875 -9.15625 L 13.796875 -9.15625 L 13.453125 -7.390625 L 4.328125 -7.390625 L 3.25 -1.78125 L 13.515625 -1.78125 L 13.171875 0 Z M 0.71875 0 "/></g></g></g><g fill="#737373" fill-opacity="1"><g transform="translate(142.550008, 254.45171)"><g><path d="M 7.046875 0.234375 C 5.140625 0.234375 3.660156 -0.101562 2.609375 -0.78125 C 1.566406 -1.457031 0.914062 -2.484375 0.65625 -3.859375 L 2.6875 -4.28125 C 2.894531 -3.300781 3.351562 -2.585938 4.0625 -2.140625 C 4.769531 -1.703125 5.816406 -1.484375 7.203125 -1.484375 C 8.867188 -1.484375 10.085938 -1.734375 10.859375 -2.234375 C 11.628906 -2.734375 12.015625 -3.5 12.015625 -4.53125 C 12.015625 -5.039062 11.898438 -5.445312 11.671875 -5.75 C 11.453125 -6.0625 11.078125 -6.335938 10.546875 -6.578125 C 10.015625 -6.828125 9.097656 -7.140625 7.796875 -7.515625 C 6.492188 -7.867188 5.519531 -8.234375 4.875 -8.609375 C 4.226562 -8.984375 3.738281 -9.4375 3.40625 -9.96875 C 3.082031 -10.507812 2.921875 -11.148438 2.921875 -11.890625 C 2.921875 -13.285156 3.503906 -14.375 4.671875 -15.15625 C 5.835938 -15.945312 7.421875 -16.34375 9.421875 -16.34375 C 11.097656 -16.34375 12.441406 -16.050781 13.453125 -15.46875 C 14.460938 -14.894531 15.097656 -14.050781 15.359375 -12.9375 L 13.390625 -12.359375 C 13.128906 -13.148438 12.671875 -13.738281 12.015625 -14.125 C 11.367188 -14.507812 10.5 -14.703125 9.40625 -14.703125 C 6.539062 -14.703125 5.109375 -13.800781 5.109375 -12 C 5.109375 -11.539062 5.203125 -11.164062 5.390625 -10.875 C 5.585938 -10.59375 5.910156 -10.34375 6.359375 -10.125 C 6.804688 -9.90625 7.691406 -9.613281 9.015625 -9.25 C 10.503906 -8.84375 11.570312 -8.445312 12.21875 -8.0625 C 12.875 -7.6875 13.375 -7.222656 13.71875 -6.671875 C 14.0625 -6.128906 14.234375 -5.457031 14.234375 -4.65625 C 14.234375 -3.09375 13.644531 -1.882812 12.46875 -1.03125 C 11.289062 -0.1875 9.484375 0.234375 7.046875 0.234375 Z M 7.046875 0.234375 "/></g></g></g><g fill="#737373" fill-opacity="1"><g transform="translate(160.538316, 254.45171)"><g><path d="M 9.8125 -14.328125 L 7.015625 0 L 4.84375 0 L 7.640625 -14.328125 L 2.109375 -14.328125 L 2.453125 -16.109375 L 15.6875 -16.109375 L 15.34375 -14.328125 Z M 9.8125 -14.328125 "/></g></g></g><g fill="#737373" fill-opacity="1"><g transform="translate(177.213215, 254.45171)"><g><path d="M 0.921875 0 L 4.0625 -16.109375 L 6.234375 -16.109375 L 3.109375 0 Z M 0.921875 0 "/></g></g></g><g fill="#737373" fill-opacity="1"><g transform="translate(186.099023, 254.45171)"><g><path d="M 8.484375 0.234375 C 6.160156 0.234375 4.359375 -0.359375 3.078125 -1.546875 C 1.796875 -2.742188 1.15625 -4.410156 1.15625 -6.546875 C 1.15625 -8.441406 1.550781 -10.140625 2.34375 -11.640625 C 3.144531 -13.140625 4.28125 -14.296875 5.75 -15.109375 C 7.21875 -15.929688 8.894531 -16.34375 10.78125 -16.34375 C 12.476562 -16.34375 13.867188 -16.019531 14.953125 -15.375 C 16.035156 -14.738281 16.785156 -13.796875 17.203125 -12.546875 L 15 -11.9375 C 14.71875 -12.8125 14.207031 -13.46875 13.46875 -13.90625 C 12.726562 -14.34375 11.789062 -14.5625 10.65625 -14.5625 C 9.1875 -14.5625 7.898438 -14.234375 6.796875 -13.578125 C 5.703125 -12.921875 4.859375 -11.988281 4.265625 -10.78125 C 3.679688 -9.570312 3.390625 -8.175781 3.390625 -6.59375 C 3.390625 -4.988281 3.835938 -3.742188 4.734375 -2.859375 C 5.640625 -1.984375 6.910156 -1.546875 8.546875 -1.546875 C 9.597656 -1.546875 10.601562 -1.695312 11.5625 -2 C 12.519531 -2.300781 13.351562 -2.742188 14.0625 -3.328125 L 14.65625 -6.234375 L 9.84375 -6.234375 L 10.203125 -8.0625 L 17.03125 -8.0625 L 15.890625 -2.40625 C 14.816406 -1.488281 13.675781 -0.816406 12.46875 -0.390625 C 11.257812 0.0234375 9.929688 0.234375 8.484375 0.234375 Z M 8.484375 0.234375 "/></g></g></g><g fill="#737373" fill-opacity="1"><g transform="translate(206.679888, 254.45171)"><g><path d="M 1.203125 -5.296875 L 1.546875 -7.125 L 7.265625 -7.125 L 6.921875 -5.296875 Z M 1.203125 -5.296875 "/></g></g></g><g fill="#737373" fill-opacity="1"><g transform="translate(216.856264, 254.45171)"><g><path d="M 3.84375 -16.109375 L 9.671875 -16.109375 C 11.265625 -16.109375 12.519531 -15.773438 13.4375 -15.109375 C 14.351562 -14.453125 14.8125 -13.554688 14.8125 -12.421875 C 14.8125 -10.253906 13.519531 -8.941406 10.9375 -8.484375 C 11.988281 -8.316406 12.800781 -7.921875 13.375 -7.296875 C 13.957031 -6.671875 14.25 -5.910156 14.25 -5.015625 C 14.25 -3.390625 13.65625 -2.144531 12.46875 -1.28125 C 11.28125 -0.425781 9.628906 0 7.515625 0 L 0.71875 0 Z M 4.703125 -9.25 L 8.484375 -9.25 C 11.179688 -9.25 12.53125 -10.234375 12.53125 -12.203125 C 12.53125 -13.640625 11.507812 -14.359375 9.46875 -14.359375 L 5.6875 -14.359375 Z M 3.234375 -1.75 L 7.4375 -1.75 C 9.039062 -1.75 10.210938 -2.023438 10.953125 -2.578125 C 11.691406 -3.140625 12.0625 -3.960938 12.0625 -5.046875 C 12.0625 -5.867188 11.757812 -6.488281 11.15625 -6.90625 C 10.550781 -7.332031 9.679688 -7.546875 8.546875 -7.546875 L 4.359375 -7.546875 Z M 3.234375 -1.75 "/></g></g></g><g fill="#737373" fill-opacity="1"><g transform="translate(234.844573, 254.45171)"><g><path d="M 0.71875 0 L 3.84375 -16.109375 L 15.828125 -16.109375 L 15.484375 -14.328125 L 5.6875 -14.328125 L 4.671875 -9.15625 L 13.796875 -9.15625 L 13.453125 -7.390625 L 4.328125 -7.390625 L 3.25 -1.78125 L 13.515625 -1.78125 L 13.171875 0 Z M 0.71875 0 "/></g></g></g><g fill="#737373" fill-opacity="1"><g transform="translate(252.832881, 254.45171)"><g><path d="M 4.359375 0.234375 C 3.140625 0.234375 2.144531 -0.117188 1.375 -0.828125 C 0.613281 -1.535156 0.132812 -2.566406 -0.0625 -3.921875 L 1.859375 -4.296875 C 2.035156 -3.398438 2.335938 -2.71875 2.765625 -2.25 C 3.191406 -1.78125 3.785156 -1.546875 4.546875 -1.546875 C 5.347656 -1.546875 5.992188 -1.820312 6.484375 -2.375 C 6.984375 -2.925781 7.347656 -3.8125 7.578125 -5.03125 L 9.375 -14.328125 L 6.046875 -14.328125 L 6.390625 -16.109375 L 11.890625 -16.109375 L 9.6875 -4.828125 C 9.351562 -3.128906 8.75 -1.859375 7.875 -1.015625 C 7.007812 -0.179688 5.835938 0.234375 4.359375 0.234375 Z M 4.359375 0.234375 "/></g></g></g><g fill="#737373" fill-opacity="1"><g transform="translate(266.915223, 254.45171)"><g><path d="M 12.125 0 L 11.265625 -4.703125 L 3.96875 -4.703125 L 1.21875 0 L -1.15625 0 L 8.53125 -16.109375 L 11.015625 -16.109375 L 14.359375 0 Z M 9.484375 -14.453125 C 9.390625 -14.253906 9.25 -13.988281 9.0625 -13.65625 C 8.875 -13.332031 7.492188 -10.914062 4.921875 -6.40625 L 10.953125 -6.40625 L 9.78125 -12.734375 Z M 9.484375 -14.453125 "/></g></g></g><g fill="#737373" fill-opacity="1"><g transform="translate(284.903532, 254.45171)"><g><path d="M 1.203125 -5.296875 L 1.546875 -7.125 L 7.265625 -7.125 L 6.921875 -5.296875 Z M 1.203125 -5.296875 "/></g></g></g><g fill="#737373" fill-opacity="1"><g transform="translate(295.079893, 254.45171)"><g><path d="M 9.734375 -16.109375 C 11.492188 -16.109375 12.890625 -15.707031 13.921875 -14.90625 C 14.953125 -14.113281 15.46875 -13.03125 15.46875 -11.65625 C 15.46875 -9.976562 14.882812 -8.660156 13.71875 -7.703125 C 12.5625 -6.753906 10.972656 -6.28125 8.953125 -6.28125 L 4.109375 -6.28125 L 2.90625 0 L 0.71875 0 L 3.84375 -16.109375 Z M 4.453125 -8 L 8.875 -8 C 11.789062 -8 13.25 -9.179688 13.25 -11.546875 C 13.25 -12.460938 12.945312 -13.160156 12.34375 -13.640625 C 11.738281 -14.117188 10.851562 -14.359375 9.6875 -14.359375 L 5.6875 -14.359375 Z M 4.453125 -8 "/></g></g></g><g fill="#737373" fill-opacity="1"><g transform="translate(313.068187, 254.45171)"><g><path d="M 9.8125 -14.328125 L 7.015625 0 L 4.84375 0 L 7.640625 -14.328125 L 2.109375 -14.328125 L 2.453125 -16.109375 L 15.6875 -16.109375 L 15.34375 -14.328125 Z M 9.8125 -14.328125 "/></g></g></g></svg>